<svg aria-hidden="true" style="position:absolute;width:0;height:0;overflow:hidden" xmlns="http://www.w3.org/2000/svg">
  <defs>
    <symbol id="icon-antique-soccer-ball_icon-iconscom_71521" viewBox="0 0 32 32">
      <path d="M16 0C7.178 0 0 7.178 0 16s7.178 16 16 16 16-7.178 16-16S24.822 0 16 0zm13.999 16c0 6.215-4.073 11.489-9.688 13.312L18.999 28H13l-1.313 1.312C6.073 27.489 2 22.215 2 16c0-.812.084-1.603.218-2.377L5 13l2.001-4-.947-2.838C8.593 3.595 12.113 2 16 2s7.407 1.595 9.946 4.162L25 9l2.001 4 2.782.623c.133.774.217 1.565.217 2.377zM13 12l-2.001-5 5-2.99 5 2.991-2.001 5L12.999 12zm13.001 5 1 5-5 3-4-4 3-5 5 1zM11 16l3 5-4 4-5-3 1-5 5-1z"/>
    </symbol>
    <symbol id="icon-ocean_water_shark_fish_sea_nature_icon_131610" viewBox="0 0 32 32">
      <path d="M17.525 16.945a.319.319 0 0 0-.392-.219l.002-.001q-.077.022-.155.042a.317.317 0 1 0 .164.612l-.002.001.164-.044a.318.318 0 0 0 .219-.392l.001.002z"/>
      <path d="M31.012 18.911a7.745 7.745 0 0 1-4.02-.073l.055.014a7.022 7.022 0 0 0 .355-1.96v-.014c.088-2.369-.978-4.324-3.081-5.654a9.77 9.77 0 0 0-3.128-1.279l-.066-.012c-.602-.13-1.194-.22-1.652-.278.116-.441.242-.81.391-1.168l-.022.058a.317.317 0 0 0-.396-.426l.002-.001a8.596 8.596 0 0 0-3.841 2.71l-.013.016c-1.254.143-2.23.649-2.824 1.466l-.006.009-.001.001c-.062.093-1.436 2.099-3.836 1.857.799-.744 2.246-2.384 2.606-4.778.475-3.159-.383-5.442-.929-6.512 1.019.353 2.892 1.363 3.723 4.142.034.127.416 1.444 1.897 2.327a.317.317 0 0 0 .326-.543l-.001-.001c-1.289-.769-1.606-1.935-1.609-1.946l-.004-.015v.002c-1.283-4.298-4.801-4.756-4.95-4.773a.317.317 0 0 0-.293.501l-.001-.001c.019.026 1.833 2.613 1.215 6.726-.453 3.013-2.859 4.791-2.883 4.808a.316.316 0 0 0 .105.563l.002.001c.354.096.76.151 1.179.152h.001c2.436 0 3.872-2.002 3.974-2.149.394-.541.986-.909 1.761-1.098a11.495 11.495 0 0 0-1.557 3.41l-.019.082a4.582 4.582 0 0 1-.643 1.451l.01-.016a3.98 3.98 0 0 1-.691.788l-.005.004h-.089a39.41 39.41 0 0 1-5.421-.373l.205.023-.014-.002c-4.452-.474-6.123 1.899-6.192 2a.318.318 0 0 0-.04.276l-.001-.002a12.484 12.484 0 0 0 2.406 4.333l-.014-.017c1.153 2.019 3.374 3.63 5.04 4.628 1.869 1.119 4.557 1.756 6.201 1.756a12.102 12.102 0 0 0 5.545-1.351l-.068.032c.607.407 1.653.891 3.205.891a8.927 8.927 0 0 0 2.148-.277l-.062.013a.318.318 0 0 0 .114-.563l-.001-.001c-.008-.006-.76-.568-1.371-1.696a.317.317 0 1 0-.557.303l-.001-.002a6.757 6.757 0 0 0 1.07 1.469l-.002-.002c-1.882.328-3.147-.069-3.896-.483 2.535-1.442 4.215-3.441 4.922-4.393.122.006.245.01.371.01h.054c.82 0 1.6-.168 2.309-.471l-.038.015c1.56-.669 2.715-2.049 3.431-4.1a.315.315 0 0 0-.299-.421.324.324 0 0 0-.094.014l.002-.001zM14.228 29.289c-1.234 0-4.102-.604-5.875-1.666-1.548-.928-3.592-2.398-4.706-4.212.561-.456 2.505-1.67 5.698.093.071.038 1.762.932 4.297 1.358 2.314.389 5.781.435 9.234-1.514a7.584 7.584 0 0 0 1.616.435l.044.006c-1.346 1.713-4.933 5.501-10.309 5.501zm13.498-6.454c-2.251.969-4.716-.115-4.741-.126a.306.306 0 0 0-.29.015l.001-.001c-3.327 1.931-6.691 1.892-8.927 1.519-2.439-.407-4.109-1.287-4.122-1.294-2.201-1.215-3.878-1.11-4.897-.808a4.37 4.37 0 0 0-1.485.765l.009-.007a12.195 12.195 0 0 1-1.999-3.623l-.026-.086c.381-.45 1.963-1.987 5.504-1.612.284.042 5.011.728 9.005.09a.317.317 0 0 0-.102-.626h.002a20.85 20.85 0 0 1-2.575.239l-.034.001a4.73 4.73 0 0 0 .304-.401l.011-.017a5.16 5.16 0 0 0 .714-1.596l.008-.036c.287-1.114 1.459-4.701 4.923-6.258-.449 1.371-1.137 4.446 1.008 6.09-.381.488-.94.901-1.674 1.231a.318.318 0 0 0 .13.606c.047 0 .092-.01.132-.029l-.002.001c1.43-.644 2.293-1.58 2.565-2.782l.003-.014c.009-.052.211-1.276-1.011-2.247a.317.317 0 0 0-.395.495l.001.001c.891.708.794 1.557.783 1.635-.05.214-.117.402-.203.579l.007-.017c-1.324-1.067-1.289-2.894-1.023-4.248a19.298 19.298 0 0 1 1.678.279c1.131.25 2.131.67 3.029 1.237l-.039-.023c1.918 1.22 2.85 2.931 2.771 5.085a6.583 6.583 0 0 1-.335 1.836l.014-.046a6.032 6.032 0 0 1-.741-.358l.031.016a.317.317 0 0 0-.312.551l.002.001c2.045 1.149 4.162.979 5.169.799-.657 1.575-1.621 2.645-2.87 3.182z"/>
      <path d="m10.027 19.37-.38.152a.317.317 0 1 0 .237.588l-.002.001.38-.152a.317.317 0 1 0-.237-.588l.002-.001zm6.435.5a.318.318 0 0 0-.291-.443.317.317 0 0 0-.286.18l-.001.002c-.029.064-.702 1.591.494 2.864a.332.332 0 0 0 .448.013.315.315 0 0 0 .014-.448c-.9-.959-.401-2.118-.379-2.17zm1.804-.351a.317.317 0 0 0-.577-.264l-.001.002c-.029.064-.702 1.591.494 2.864.062.066.329.114.448.014a.31.31 0 0 0 .014-.448c-.9-.958-.402-2.117-.379-2.17zm1.629-.675a.318.318 0 0 0-.291-.443.315.315 0 0 0-.285.18l-.001.002c-.029.064-.702 1.591.494 2.865.062.066.327.122.447.014a.316.316 0 0 0 .014-.448c-.901-.959-.401-2.12-.378-2.17z"/>
    </symbol>
    <symbol id="icon-heart_cards_elements_game_icon_224987" viewBox="0 0 32 32">
      <path d="M13.428 7.585h11.206c1.152 0 2.085.933 2.085 2.085v15.952a2.085 2.085 0 0 1-2.085 2.085H13.428a2.085 2.085 0 0 1-2.085-2.085V9.67c0-1.166.933-2.085 2.085-2.085zm11.206.549H13.428c-.848 0-1.536.688-1.536 1.536v15.952c0 .85.686 1.536 1.536 1.536h11.206c.837 0 1.536-.686 1.536-1.536V9.67c0-.848-.688-1.536-1.536-1.536z"/>
      <path d="M14.128 8.929c.549-.562 1.564-.178 1.564.645 0 .754-.686 1.44-1.372 2.112a.272.272 0 0 1-.37 0c-.686-.672-1.92-1.92-1.097-2.743a.902.902 0 0 1 1.289-.027zm.439.343c-.151.137-.137.315-.302.398a.274.274 0 0 1-.37-.136l-.001-.002c-.11-.206-.178-.302-.398-.302a.371.371 0 0 0-.357.356v.001c0 .48.466 1.001 1.001 1.536.466-.48 1.303-1.372.892-1.783-.137-.137-.357-.137-.466-.055zm9.354 14.512c.535-.562 1.55-.178 1.55.645 0 .754-.686 1.427-1.372 2.112a.272.272 0 0 1-.37 0c-.686-.686-1.372-1.372-1.372-2.112 0-.823 1.029-1.207 1.564-.645zm.425.343c-.165.137-.137.315-.302.384a.274.274 0 0 1-.369-.122l-.001-.002c-.315-.631-.754-.219-.754.041 0 .466.466 1.001 1.001 1.523.521-.521 1.001-1.056 1.001-1.523 0-.343-.412-.439-.576-.302zm-5.322-9.588c.48-.782 1.056-1.234 2.03-1.234a2.311 2.311 0 0 1 2.304 2.318c0 2.277-2.496 4.622-4.142 6.268a.274.274 0 0 1-.384 0c-1.646-1.646-4.129-3.991-4.129-6.268 0-2.016 2.332-2.922 3.676-1.865.257.219.471.478.637.768l.007.014zm1.002-.356c-.576.453-.658 1.07-.878 1.18a.274.274 0 0 1-.37-.136l-.001-.002c-.412-.85-.823-1.372-1.783-1.372a1.756 1.756 0 0 0-1.742 1.756v.014-.001c0 2.003 2.304 4.211 3.772 5.679 1.481-1.468 3.786-3.676 3.786-5.679 0-1.564-1.824-2.195-2.784-1.44zm3.635-4.664c-.302-.59-.741-.219-.741.055 0 .48.466 1.001 1.001 1.536.521-.549 1.001-1.056 1.001-1.536 0-.261-.439-.658-.754-.027a.274.274 0 0 1-.507-.026l-.001-.002zm.164-.672a.861.861 0 0 1 .096.082c.535-.549 1.55-.178 1.55.645 0 .754-.686 1.44-1.372 2.112a.272.272 0 0 1-.37 0c-.686-.686-1.372-1.358-1.372-2.112 0-.782.933-1.166 1.468-.727zm-9.944 15.527c-.302-.604-.741-.233-.741.041 0 .466.466 1.001 1.001 1.523.521-.521 1.001-1.056 1.001-1.523 0-.343-.412-.439-.576-.302-.165.123-.233.549-.549.384a.275.275 0 0 1-.136-.135l-.001-.002zm.164-.686c.035.03.066.061.095.095l.001.001c.535-.562 1.55-.178 1.55.645 0 .754-.686 1.427-1.372 2.112a.272.272 0 0 1-.37 0c-.686-.686-1.372-1.372-1.372-2.112 0-.782.933-1.166 1.468-.727z"/>
      <path d="M18.778 15.211c-.425-.85-.837-1.344-1.783-1.344a1.756 1.756 0 0 0-1.742 1.756c0 2.003 2.304 4.211 3.772 5.679 1.481-1.468 3.786-3.676 3.786-5.679 0-1.564-1.824-2.195-2.784-1.44a3.088 3.088 0 0 0-.747 1.036l-.008.02a.275.275 0 0 1-.493-.026l-.001-.002zm-.412-1.454a2.9 2.9 0 0 1 .651.768l.007.014c.48-.782 1.056-1.234 2.03-1.234a2.311 2.311 0 0 1 2.304 2.318c0 2.277-2.496 4.622-4.142 6.268a.274.274 0 0 1-.384 0c-1.646-1.646-4.129-3.991-4.129-6.268 0-2.016 2.332-2.922 3.676-1.865z"/>
      <path d="M11.878 26.747c.357-.069.261-.604-.096-.549a1.536 1.536 0 0 1-1.766-1.087l-.003-.011L5.898 9.683a1.537 1.537 0 0 1 1.045-1.876l.011-.003L17.79 4.896a1.536 1.536 0 0 1 1.879 1.097l.521 1.92c.096.357.617.219.535-.137l-.508-1.934a2.089 2.089 0 0 0-2.566-1.465l.015-.003L6.83 7.268a2.089 2.089 0 0 0-1.465 2.566l-.003-.015 4.115 15.417a2.116 2.116 0 0 0 2.4 1.509z"/>
      <path d="M7.873 8.394a.823.823 0 0 1 .543-.41l.005-.001a.92.92 0 0 1 1.109.625l.002.007c.206.768-.343 1.701-.754 2.387-.082.137-.274.178-.412.11-.617-.425-1.591-.864-1.811-1.687a.92.92 0 0 1 .625-1.123l.006-.002a.818.818 0 0 1 .689.098l-.003-.002zm.494.22c-.137.165-.055.343-.192.439a.274.274 0 0 1-.384 0c-.165-.206-.247-.274-.466-.219a.361.361 0 0 0-.247.453c.123.48.919.96 1.358 1.207.274-.48.713-1.234.576-1.742-.096-.302-.508-.329-.645-.137zm9.656-.892c-.178.315.302.576.48.274.302-.576.645-1.289.48-1.92-.219-.782-1.289-.878-1.66-.206-.864-.535-2.428.782-.288 2.208.302.206.604-.247.302-.453-1.427-.96-.631-1.454-.329-1.317.192.082.219.261.398.288l.022.001a.274.274 0 0 0 .265-.205V6.39c.137-.686.686-.412.754-.165.11.439-.219 1.07-.439 1.495zm-6.57 15.486c.37.274.741-.453-.027-.59-.809-.137-1.961 1.029.041 2.359.288.192.59-.261.302-.453-1.509-1.001-.645-1.55-.315-1.317zm.261-10.726c.329-.137.137-.645-.206-.508a2.308 2.308 0 0 0-1.367 2.745l-.004-.016c.219.782.7 1.44 1.276 2.016.274.261.645-.137.398-.384-.782-.768-1.55-1.92-1.015-3.018.197-.381.517-.675.907-.832l.012-.004z"/>
    </symbol>
    <symbol id="icon-womanglasses3_116026" viewBox="0 0 32 32">
      <path d="M18.003 17.059s1.922 1.067 5.242.932c0 0 .155-.448-.369-.739s-2.485-1.126-4.873-.194z"/>
      <path d="M26.159 15.016c.019-.506-1.126-1.632-1.126-1.632.077-4.348-4.272-6.719-4.272-6.719l6.233-3.145-.078-.601-6.893 3.63 4.951-5.261-.563-.33-4.87 5.122c.124-.138.7-.903-.315-2.443-1.126-1.709-4.427-.504-4.427-.504-.466-.213-2.854-1.223-4.31.271-1.456 1.495.719 2.136.719 2.136-2.777 1.029-3.359 3.574-3.359 3.574-2.912.563-3.398 2.543-3.126 4.271s1.864 2.892 1.864 2.892l.33-.135c-.816-4 3.107-3.651 3.107-3.651 2 2.428 6.446 3.825 6.446 3.825.136-.02 2-.873 4.194-.834 2.194.038 3.845.834 4.116 1.047.199.156.055.811-.082 1.266a.235.235 0 0 1 .082-.013c.131 0 .204-.057.262.918s-.437 1.937-.437 1.937c-.126-.53-.187-1.912-.201-2.272-.12.061-.246.03-.246.03 0 .893-.447 1.999-.447 1.999.427 4.368 2.175 7.087 2.175 7.087-.913-3.029-1.029-5.921-1.029-5.921 1.048-1.845.408-3.321.408-3.321s.078.059.796-.097c.718-.156.252-1.883.175-2.175-.078-.291-.097-.447-.078-.95zM5.295 20.86c-.422-1.108-.262-2.155-.175-2.549.087-.392.401-.36.437-.247.262.816.015 1.674-.073 1.806s.058.728.16 1.31c.102.582.073.786-.349-.32zm2.971 6.013s-.728-1.79-.99-4.033c-.262-2.243-.582-4.457-.582-4.457s-.35-.014-.422-.247c-.073-.233-.262-1.004-.262-1.135s-.044-.263-.044-.263-.175.612-.16.888c0 0-.772-.29-.99.874s-.058 2.402 1.165 4.092c0 0-.262 3.408-1.092 4.732 0 0 1.34-.771 1.602-2.722 0 0 .728 1.616 1.354 2.679 0 0-.335-1.063-.466-2.024 0 0 .495 1.135.888 1.616zM14.974 22.68c-.048-.033-.117.029-.01.116s.369.291.825.136c0 0 .165-.204-.087-.164-.253.038-.515.057-.728-.087zM17.296 26.839c-.282.282-.544.232-.99.185-.447-.049-.835-.049-1.398.009s-.514-.058-.709-.368c-.194-.311-.806-.496-.806-.496.427-.028 1.388-.291 1.476-.291s.408.349.747.359c.34.009.515-.282.573-.331.058-.048.279.13.884.243.621.116.942 0 .942 0-.282.127-.437.408-.719.69zm.301-.776c-.427-.01-.612-.069-.913-.156-.301-.086-.524-.213-.592-.116s-.243.331-.553.262c-.311-.069-.563-.291-.68-.282-.117.01-.951.273-1.417.273s-.553.028-.709-.019c0 0 1.107.495 1.243.805.136.311.417.496 1.087.399.67-.098.505-.088.748-.088s.893.116 1.204.039c.311-.077.622-.553.748-.699s.932-.524.932-.524-.688.116-1.097.107z"/>
      <path d="M7.617 21.751c.019-.117.116-.02.136.097s.097 2.543 1.243 3.884c1.146 1.339 2.99 2.874 3.825 3.571.835.699 1.67 1.554 2.699 1.495 1.029-.058 1.573-.27 2.641-1.281 1.107-1.048 3.029-3.068 3.98-4.213.898-1.081 1.146-2.137 1.165-2.737.019-.602-.078-.836.039-1.03s.175-.155.194.155c.019.311.272 1.729-.835 3.185-1.161 1.529-2.68 3.088-4.019 4.486-1.33 1.388-2.132 1.592-3.281 1.592-1.34 0-1.534-.485-3.456-2.137-1.907-1.636-3.573-2.912-3.942-4.233-.369-1.319-.466-2.369-.388-2.834z"/>
      <path d="M23.275 19.632c-.618 3.382-4.169 2.682-5.126 1.971-.956-.71-1.261-2.39-1.304-3.202s.942-1.826 2.884-1.971c1.942-.144 3.29.506 3.623.884s.043 1.659-.078 2.319zm-10.527 1.971c-.957.711-4.507 1.412-5.126-1.971-.121-.66-.41-1.941-.077-2.319s1.681-1.028 3.623-.884c1.942.144 2.927 1.159 2.884 1.971s-.348 2.493-1.304 3.202zm11.878-5.009c-.57-.329-2.361-1.2-4.888-.885-2.079.261-3.302.703-3.88.966-.131.059-.271.09-.41.09a1 1 0 0 1-.41-.09c-.578-.262-1.801-.705-3.88-.966-2.526-.315-4.317.556-4.888.885a.313.313 0 0 0-.148.337l.199.932a.315.315 0 0 0 .366.244l.104-.02s.296 1.646.622 2.569c.546 1.547 2.103 2.204 3.803 2.011 1.7-.194 2.28-.831 2.84-2.01s.676-1.971 1.391-1.991c.715.02.831.812 1.391 1.991s1.14 1.815 2.84 2.01c1.701.193 3.257-.464 3.803-2.011.326-.922.622-2.569.622-2.569l.104.02a.315.315 0 0 0 .366-.244l.199-.932a.313.313 0 0 0-.148-.337zM12.734 26.021s1.712-1.004 2.176-.976c.464.03.346.19.675.16.328-.028.503-.306.998-.16s1.325.84 2.112.909l-.262.067s-1.689-.845-2.112-.845c-.362 0-.494.145-.736.175-.527.063-.663-.194-1.113-.036-.576.203-1.45.841-1.557.791l-.181-.085z"/>
      <path d="m12.229 18.397-.729.696.296-.96a.998.998 0 0 0-.296-.049 1.01 1.01 0 1 0 .729.313zM20.034 18.397l-.729.696.296-.96a.998.998 0 0 0-.296-.049 1.01 1.01 0 1 0 .729.313z"/>
    </symbol>
    <symbol id="icon-blockchain_icon_246674" viewBox="0 0 32 32">
      <path d="M8 10h1v1H8v-1zM22 10h1v1h-1v-1zM3.5 20.5h1v1h-1v-1zM3.5 18.5h1v1h-1v-1zM3.5 16.5h1v1h-1v-1z"/>
      <path d="M29 14.55V7.499a.5.5 0 0 0-.5-.5h-4.177c-1.398-3.51-4.822-6-8.823-6s-7.426 2.49-8.823 6H4.001c-1.655 0-3 1.346-3 3v18c0 1.654 1.345 3 3 3h24.5a.5.5 0 0 0 .5-.5v-6.05a2.505 2.505 0 0 0 2-2.45v-5a2.506 2.506 0 0 0-2-2.45zM30 17c0 .095-.011.186-.028.276-.005.028-.013.055-.02.082a1.565 1.565 0 0 1-.091.264 1.533 1.533 0 0 1-.092.169c-.013.02-.024.043-.038.063-.05.072-.105.14-.166.202-.01.011-.022.018-.032.029a1.61 1.61 0 0 1-.169.14l-.07.046a1.64 1.64 0 0 1-.165.09c-.026.012-.051.024-.078.035-.016.006-.034.01-.05.015v-2.822a1.5 1.5 0 0 1 1 1.414zm-5.342-9H28v4h-3.124c.006-.034.008-.068.012-.102.028-.184.05-.367.067-.549l.017-.188a8.7 8.7 0 0 0 .027-.662c0-.277-.017-.553-.042-.829-.009-.095-.018-.19-.029-.284a9.91 9.91 0 0 0-.227-1.205c-.015-.06-.027-.121-.044-.181zM15.5 2c3.703 0 6.852 2.384 8.014 5.694a9.194 9.194 0 0 1 .344 1.297c.019.105.034.211.049.317.02.137.041.274.054.412.023.257.04.516.04.778 0 .282-.02.569-.05.857-.009.088-.024.175-.036.264-.017.126-.042.252-.065.379h-3.527a3.008 3.008 0 0 0-1.777-1.809 2.985 2.985 0 0 0 .956-2.19c0-1.655-1.346-3-3-3v-1h-1v1h-1v-1h-1v1h-.5c-.277 0-.5.223-.5.5v6.5H7.154c-.023-.127-.048-.253-.065-.379-.012-.088-.027-.176-.036-.264a8.053 8.053 0 0 1-.051-.857c0-.262.016-.521.04-.778.013-.137.034-.275.054-.412.015-.106.029-.212.048-.317.034-.182.074-.364.119-.544l.037-.146c.055-.204.117-.407.187-.607C8.649 4.384 11.799 2 15.501 2zm1 4c1.103 0 2 .897 2 2s-.897 2-2 2h-3V6h3zm-3 5h4c.727 0 1.382.396 1.732 1H13.5v-1zM4 8h2.342c-.016.06-.028.12-.043.181-.056.22-.105.441-.144.665a9.021 9.021 0 0 0-.111.824 8.851 8.851 0 0 0-.043.829c0 .219.011.44.027.662l.016.188c.017.182.04.365.067.549.005.034.007.068.013.102H4c-1.103 0-2-.897-2-2s.897-2 2-2zm.5 22v-7.5h-1v7.429c-.861-.224-1.5-1-1.5-1.929V12.235c.009.008.019.014.029.021.116.102.241.195.373.278l.063.039c.135.081.276.152.424.211l.062.023c.153.057.311.104.475.136l.045.007c.172.031.349.05.53.05h24v5.5h-1.5v-1a.5.5 0 0 0-.5-.5h-2a.5.5 0 0 0-.5.5v1h-3a.497.497 0 0 0-.39.188l-2 2.5a.5.5 0 0 0 0 .625l2 2.5a.498.498 0 0 0 .39.188h3v1a.5.5 0 0 0 .5.5h2a.5.5 0 0 0 .5-.5v-1h1.5v5.5h-23.5zm19-6.5h-2.76l-1.6-2 1.6-2h2.76v4zm1 .5v-6h1v7h-1v-1zm5.5-2c0 .827-.673 1.5-1.5 1.5h-2v-4h2c.159 0 .313-.018.464-.047.047-.009.093-.023.139-.035.102-.026.203-.055.3-.093a2.502 2.502 0 0 0 .41-.207c.042-.026.084-.051.125-.079.02-.014.043-.025.063-.04V22z"/>
      <path d="M26 28h1v1h-1v-1z"/>
    </symbol>
    <symbol id="icon-casino_slots_pc_online_game_icon_225840" viewBox="0 0 32 32">
      <path d="M28.575 23.35h-.1V6.685c0-1.02-.83-1.855-1.855-1.855h-8.14l-.545-.145a1.762 1.762 0 0 0-1.348.179l.008-.005c-.055.03-.09.085-.14.12l-.24-.89a1.76 1.76 0 0 0-.817-1.071l-.008-.005c-.41-.235-.885-.3-1.34-.175L8.325 4.373c-.295.08-.54.25-.75.455H5.37c-1.02 0-1.855.83-1.855 1.855v16.665h-.1c-.785 0-1.425.64-1.425 1.42v1.615c0 1.56 1.285 2.83 2.865 2.83H27.17c1.56 0 2.83-1.27 2.83-2.83v-1.615c0-.785-.64-1.42-1.425-1.42zM26.62 5.83c.47 0 .855.385.855.855v13.29h-.865V7.195c0-.275-.225-.5-.5-.5h-1.675c-.21-.215-.46-.395-.77-.475l-1.45-.39h4.405zM9.55 15.74a1.775 1.775 0 0 0 2.178 1.248l-.012.003 1.8-.485c.235.38.605.67 1.05.79l5.725 1.535a1.772 1.772 0 0 0 2.162-1.238l.003-.012 2.465-9.195c.06-.23.075-.465.045-.69h.655v12.275H6.386V7.696h1.005l2.155 8.04zM17.1 5.73a.747.747 0 0 1 .585-.075L23.41 7.19c.41.11.655.53.545.94l-2.465 9.195a.774.774 0 0 1-.94.545l-5.725-1.535c-.08-.02-.14-.075-.21-.12l2.825-.755a1.754 1.754 0 0 0 1.07-.817l.005-.008c.15-.255.2-.54.21-.825.06.01.11.045.17.045.21 0 .425-.055.62-.165l1.075-.62a1.224 1.224 0 0 0 .622-1.076c0-.23-.062-.445-.17-.63l.003.006-.62-1.075a1.224 1.224 0 0 0-1.076-.622c-.23 0-.445.062-.63.17l.006-.003-.83.48-1.12-4.175c.06-.17.17-.32.33-.41zm1.575 7-.26-.455-.255-.96 1.065-.615a.238.238 0 0 1 .185-.025c.06.015.115.055.145.115l.62 1.075c.035.055.04.12.025.185a.222.222 0 0 1-.115.145l-1.075.62a.234.234 0 0 1-.33-.09zM8.59 5.345l5.725-1.535a.771.771 0 0 1 .585.075c.175.1.305.27.355.465l1.87 6.985.59 2.21c.055.2.025.405-.075.585a.756.756 0 0 1-.465.355L11.45 16.02a.768.768 0 0 1-.94-.545L8.045 6.28a.771.771 0 0 1 .075-.585c.1-.175.27-.305.465-.355zm-3.215.49h1.67c-.035.235-.025.475.04.71l.04.155H5.89c-.275 0-.5.225-.5.5v12.775h-.865V6.685c0-.47.385-.855.855-.855zm-.855 15.14h22.96v2.375H4.52v-2.375zm6.165 3.375h10.62v.5a.42.42 0 0 1-.425.42h-9.77a.424.424 0 0 1-.425-.42v-.5zm18.31 2.035c0 1.01-.82 1.83-1.83 1.83h-22.3c-1.03 0-1.865-.82-1.865-1.83V24.77c0-.235.19-.42.425-.42H9.69v.5c0 .785.64 1.42 1.425 1.42h9.775c.785 0 1.425-.64 1.425-1.42v-.5h6.265c.235 0 .425.19.425.42v1.615z"/>
      <path d="M13.76 22.66h4.475c.275 0 .5-.225.5-.5s-.225-.5-.5-.5H13.76c-.275 0-.5.225-.5.5s.225.5.5.5zm-2.345-11.44 1.075.62c.19.11.405.17.62.17.105 0 .215-.015.32-.045.32-.085.59-.29.755-.58l.62-1.075a1.244 1.244 0 0 0-.455-1.7l-1.075-.62a1.25 1.25 0 0 0-1.697.449l-.003.006-.62 1.075a1.234 1.234 0 0 0-.123.954l-.002-.009c.085.32.29.59.58.755zm.41-1.2.62-1.075a.267.267 0 0 1 .15-.115c.02-.005.04-.01.06-.01.04 0 .085.01.12.035l1.075.62c.12.07.155.215.09.335l-.62 1.075c-.035.055-.085.095-.145.115s-.125.01-.185-.025l-1.075-.62a.254.254 0 0 1-.115-.148v-.002a.247.247 0 0 1 .026-.186l-.001.001zm-2.78-3.375c.12 0 .235-.065.295-.17a.343.343 0 0 0-.125-.465.34.34 0 0 0-.464.123l-.001.002a.343.343 0 0 0 .125.465c.05.03.11.045.17.045zm.945-.25a.342.342 0 0 0 .34-.339.345.345 0 0 0-.168-.295l-.002-.001a.34.34 0 0 0-.464.123l-.001.002a.343.343 0 0 0 .125.465c.05.03.11.045.17.045zm5.79 7.725c.12 0 .235-.065.295-.17a.343.343 0 0 0-.125-.465.34.34 0 0 0-.464.123l-.001.002a.34.34 0 0 0 .123.464l.002.001c.05.03.11.045.17.045zm.945-.255c.12 0 .235-.065.295-.17a.343.343 0 0 0-.125-.465.34.34 0 0 0-.464.123l-.001.002a.343.343 0 0 0 .125.465c.05.03.11.045.17.045zM17.93 6.71c0-.06-.015-.12-.045-.17a.343.343 0 0 0-.467-.124l.002-.001a.343.343 0 0 0-.124.467l-.001-.002a.343.343 0 0 0 .467.124l-.002.001a.342.342 0 0 0 .17-.295zm.78.55a.343.343 0 0 0 .124-.467l.001.002a.343.343 0 0 0-.467-.124l.002-.001a.343.343 0 0 0-.124.467l-.001-.002c.095.16.305.22.465.125zm.81 9a.343.343 0 0 0-.124.467l-.001-.002c.095.16.305.22.465.125a.343.343 0 0 0 .124-.467l.001.002a.344.344 0 0 0-.467-.125l.002-.001zm1.115.205c-.06 0-.12.015-.17.045a.343.343 0 0 0-.124.467l-.001-.002a.343.343 0 0 0 .467.124l-.002.001a.343.343 0 0 0 .125-.465.342.342 0 0 0-.295-.17z"/>
    </symbol>
    <symbol id="icon-task-report-down" viewBox="0 0 32 32">
      <path fill="#fff" style="fill:var(--color1, #fff)" d="M3.292 9.292A.991.991 0 0 1 4 8.999a1.002 1.002 0 0 1 .708.293L16 20.586 27.292 9.292A.991.991 0 0 1 28 8.999a1.006 1.006 0 0 1 .925.618 1.006 1.006 0 0 1-.217 1.091l-12 12a.991.991 0 0 1-.708.293 1.002 1.002 0 0 1-.708-.293l-12-12A.991.991 0 0 1 2.999 10a1.002 1.002 0 0 1 .293-.708z"/>
    </symbol>
  </defs>
</svg>
